<?xml version="1.0" standalone="no"?>
<!DOCTYPE svg PUBLIC "-//W3C//DTD SVG 20010904//EN"
 "http://www.w3.org/TR/2001/REC-SVG-20010904/DTD/svg10.dtd">
<svg version="1.0" xmlns="http://www.w3.org/2000/svg"
 width="500.000000pt" height="500.000000pt" viewBox="0 0 500.000000 500.000000"
 preserveAspectRatio="xMidYMid meet">
<metadata>
Created by potrace 1.11, written by Peter Selinger 2001-2013
</metadata>
<g transform="translate(0.000000,500.000000) scale(0.100000,-0.100000)"
fill="#000000" stroke="none">
<path d="M3480 4305 c-52 -18 -174 -67 -270 -110 -96 -43 -207 -90 -246 -106
-80 -31 -333 -157 -379 -188 -16 -12 -32 -21 -35 -21 -3 0 -6 27 -6 60 -2 73
-28 122 -110 203 -104 104 -195 131 -409 125 -138 -4 -147 -6 -395 -111 l-35
-15 0 65 c0 60 -2 66 -33 94 -53 48 -99 41 -272 -37 -80 -37 -203 -91 -275
-121 -71 -30 -189 -79 -262 -110 -73 -31 -183 -84 -245 -120 -62 -35 -187 -94
-277 -131 -104 -43 -176 -78 -197 -98 -31 -28 -34 -37 -34 -85 0 -64 18 -95
66 -115 51 -21 69 -18 211 40 73 30 135 51 137 47 2 -3 10 -53 16 -111 13
-104 12 -104 -10 -120 -53 -36 -89 -78 -95 -113 -10 -51 19 -107 68 -130 41
-21 41 -18 28 -137 -32 -283 -34 -338 -14 -376 17 -34 44 -54 88 -69 15 -5 6
-11 -40 -26 -91 -29 -315 -149 -339 -182 -28 -38 -28 -106 0 -144 11 -15 39
-34 61 -42 36 -13 45 -12 89 3 27 9 56 18 64 19 28 4 40 -229 44 -814 3 -389
7 -553 16 -568 16 -30 69 -61 105 -61 39 0 90 32 109 68 9 18 18 77 23 158 l8
129 55 6 c135 16 527 144 638 209 31 19 34 19 87 2 30 -9 55 -19 55 -22 0 -3
-50 -93 -111 -200 -60 -107 -115 -213 -121 -236 -30 -111 104 -196 195 -124
27 22 288 471 350 603 33 70 41 80 79 96 92 40 84 52 91 -126 10 -246 31 -320
100 -356 48 -24 96 -17 140 23 29 26 32 33 31 87 0 32 -6 112 -13 178 -6 66
-11 164 -9 219 l3 98 62 24 c35 12 82 34 105 47 24 14 108 49 188 78 138 50
189 80 202 119 4 12 21 11 119 -8 286 -55 486 -109 508 -136 13 -16 -12 -38
-142 -125 -84 -56 -137 -82 -322 -156 -136 -54 -369 -169 -402 -198 -55 -48
-50 -132 10 -183 27 -23 38 -26 89 -22 46 3 81 16 175 65 65 33 170 81 234
106 137 54 248 106 307 142 23 14 42 24 42 20 0 -3 -10 -22 -23 -43 -76 -123
-68 -239 22 -299 58 -39 126 -46 379 -39 336 9 607 42 690 85 83 42 110 137
57 200 -40 47 -79 55 -156 32 -82 -25 -271 -49 -474 -61 -199 -12 -265 -12
-265 -2 0 4 48 70 106 147 58 77 109 146 113 154 7 12 16 7 43 -21 51 -55 79
-56 280 -13 187 40 253 67 281 113 32 56 11 143 -43 172 -27 15 -89 15 -131 1
-19 -6 -88 -22 -154 -36 -66 -14 -128 -28 -137 -31 -27 -8 -22 7 30 98 27 46
57 106 67 134 10 27 23 55 29 63 28 37 216 176 285 210 90 45 250 106 306 116
26 4 52 19 78 46 38 37 39 42 35 89 -9 96 -75 131 -196 106 -111 -23 -335
-119 -450 -193 -50 -31 -57 -33 -88 -23 -19 7 -45 9 -58 6 -20 -5 -25 0 -35
33 -13 46 -62 91 -97 91 -17 0 -27 8 -35 26 -5 15 -8 28 -7 30 2 1 50 8 106
13 105 11 204 34 417 95 96 28 125 41 147 65 60 66 41 158 -40 193 -51 23 -59
21 -321 -52 -162 -45 -301 -63 -301 -38 0 15 134 286 149 301 5 5 81 24 170
43 90 19 242 62 339 96 98 33 210 71 250 85 83 29 127 66 136 117 14 71 -47
146 -119 146 -37 0 -128 -27 -265 -79 -116 -43 -295 -98 -353 -108 l-37 -6 15
49 c34 110 64 234 76 312 7 46 18 90 24 99 18 24 335 130 447 148 90 15 138
60 138 130 0 70 -59 125 -135 125 -56 0 -254 -53 -425 -115 -85 -30 -160 -55
-167 -55 -25 0 -307 -206 -398 -291 -27 -25 -35 -28 -63 -20 -23 7 -48 6 -85
-4 -126 -33 -251 -77 -377 -130 -74 -31 -141 -59 -147 -62 -9 -3 -13 5 -13 28
0 19 -15 78 -34 131 -26 76 -31 100 -21 108 7 6 55 28 106 49 52 21 171 72
264 113 184 81 339 138 377 138 55 0 118 66 118 125 0 34 -24 80 -52 99 -41
29 -167 20 -278 -19z m-2120 -362 c-103 -121 -121 -161 -99 -219 25 -66 96
-96 168 -70 l24 8 -6 -83 c-7 -103 -30 -262 -51 -349 -18 -79 -72 -375 -80
-448 -5 -40 -2 -63 12 -95 53 -120 219 -86 237 49 4 27 15 92 24 144 l18 95 6
-60 c4 -33 14 -142 23 -243 19 -209 25 -187 -77 -267 l-59 -46 0 38 c-1 82
-50 146 -134 173 -89 29 -484 7 -712 -40 -53 -11 -99 -19 -101 -17 -1 2 8 10
22 17 44 24 64 69 74 171 22 210 41 406 44 444 2 38 5 41 77 81 41 23 114 59
162 79 104 43 138 77 138 136 0 78 -49 129 -123 129 -35 0 -138 -35 -207 -70
-22 -11 -43 -20 -48 -20 -5 0 -12 30 -16 68 -4 37 -9 88 -13 115 l-6 47 104
49 c57 26 131 57 164 69 54 19 190 78 430 186 44 20 84 36 88 36 4 0 -33 -48
-83 -107z m810 66 c44 -10 110 -60 110 -84 0 -23 -130 -136 -220 -191 -74 -44
-228 -124 -352 -182 -5 -2 -8 58 -8 132 0 99 -4 147 -15 173 -8 20 -14 38 -12
39 5 5 248 105 277 114 36 12 168 11 220 -1z m561 -414 c32 -92 14 -157 -49
-175 -91 -25 -141 -86 -127 -158 6 -34 46 -84 75 -94 12 -4 9 -24 -19 -119
-18 -63 -35 -116 -37 -118 -2 -2 -10 2 -18 8 -17 14 -70 19 -106 9 -23 -6 -29
0 -70 69 -56 93 -101 147 -242 291 -61 61 -109 113 -107 115 7 6 243 142 251
145 5 2 18 -8 29 -22 28 -35 86 -52 130 -37 19 6 84 44 144 85 61 41 113 71
118 67 4 -4 16 -34 28 -66z m1144 -142 c-39 -117 -56 -155 -87 -190 -21 -24
-38 -46 -38 -47 0 -41 -32 -131 -75 -212 -53 -97 -58 -104 -93 -110 -52 -9
-81 -26 -123 -71 -77 -82 -124 -156 -154 -247 l-31 -90 -117 -54 c-65 -30
-121 -52 -124 -49 -12 12 -41 135 -34 145 4 6 47 25 96 43 50 17 104 38 120
46 70 35 114 105 101 159 -4 14 0 37 9 54 34 66 2 144 -73 170 -34 12 -53 12
-112 2 -113 -19 -202 -76 -278 -175 -29 -38 -46 -26 -39 27 6 43 76 279 103
346 11 27 23 40 42 45 15 4 124 47 243 95 119 49 261 101 314 116 53 15 113
38 132 51 29 19 43 23 73 18 45 -8 95 11 147 54 21 17 39 28 42 26 2 -3 -18
-71 -44 -152z m-2176 -154 c-28 -18 -33 -12 -23 29 l7 23 15 -22 c12 -18 13
-23 1 -30z m449 -392 c22 -35 66 -119 97 -188 31 -68 63 -131 72 -141 11 -13
12 -24 4 -55 -6 -21 -15 -116 -20 -212 -11 -193 -6 -220 44 -259 19 -15 42
-22 72 -22 38 0 51 6 78 33 47 47 57 96 58 292 2 163 1 171 -21 202 -18 26
-21 37 -12 52 5 11 10 40 10 64 0 32 5 47 16 51 26 10 32 7 38 -17 8 -34 73
-105 117 -128 35 -17 39 -23 39 -58 0 -21 13 -85 30 -142 16 -57 30 -109 30
-115 0 -6 -17 -18 -37 -28 -83 -40 -203 -126 -229 -165 -21 -33 -26 -51 -25
-99 l1 -59 -93 -33 c-50 -18 -112 -43 -136 -56 -24 -13 -48 -24 -53 -24 -6 0
-7 99 -3 273 7 262 7 274 -13 312 -24 48 -67 75 -117 75 -59 0 -92 -27 -129
-104 l-33 -69 -6 39 c-7 39 -6 40 78 118 47 43 92 91 100 107 19 36 19 82 0
120 -15 29 -15 31 14 59 50 50 50 102 -1 203 -28 56 -15 45 30 -26z m-222
-199 c-12 -10 -24 -18 -27 -18 -11 0 -19 41 -19 95 l0 49 33 -54 34 -55 -21
-17z m-836 -386 c0 -5 -42 -28 -92 -52 -203 -94 -324 -154 -351 -173 -16 -11
-32 -16 -36 -11 -11 12 -23 174 -13 174 4 0 52 9 107 20 55 11 163 26 240 34
77 7 141 14 143 15 1 0 2 -3 2 -7z m2345 -145 c17 -8 67 -23 110 -32 90 -19
149 -15 263 16 41 11 76 18 79 15 5 -4 -14 -66 -63 -209 -17 -52 -134 -257
-145 -257 -5 0 -9 4 -9 10 0 22 -77 93 -140 130 -37 22 -103 51 -146 66 -71
24 -122 36 -376 92 -43 9 -78 19 -78 22 0 9 133 79 279 146 l135 62 30 -23
c17 -12 45 -30 61 -38z m-1740 -73 c4 -36 5 -88 2 -116 -8 -68 1 -104 35 -138
l28 -29 -54 -113 c-48 -101 -54 -109 -55 -78 -3 102 -52 166 -190 248 -66 39
-139 71 -235 102 l-139 46 86 47 c48 26 89 47 91 47 3 0 8 -16 12 -35 14 -74
97 -121 166 -92 18 8 78 51 132 95 54 45 102 82 106 82 5 0 12 -30 15 -66z
m-995 -271 c25 -7 90 -18 145 -23 122 -11 369 -84 462 -137 35 -19 65 -38 68
-42 11 -18 -134 -124 -219 -160 -156 -68 -506 -175 -519 -160 -2 2 -7 127 -10
277 -6 257 -6 274 11 267 9 -4 37 -14 62 -22z"/>
<path d="M4907 3155 c-31 -93 -47 -187 -28 -169 7 6 17 44 22 83 4 39 16 85
24 102 9 17 15 38 13 47 -2 9 -16 -19 -31 -63z"/>
</g>
</svg>
