<?xml version="1.0" standalone="no"?>
<!DOCTYPE svg PUBLIC "-//W3C//DTD SVG 20010904//EN"
 "http://www.w3.org/TR/2001/REC-SVG-20010904/DTD/svg10.dtd">
<svg version="1.0" xmlns="http://www.w3.org/2000/svg"
 width="506.000000pt" height="506.000000pt" viewBox="0 0 506.000000 506.000000"
 preserveAspectRatio="xMidYMid meet">
<metadata>
Created by potrace 1.11, written by Peter Selinger 2001-2013
</metadata>
<g transform="translate(0.000000,506.000000) scale(0.100000,-0.100000)"
fill="#000000" stroke="none">
<path d="M280 2530 l0 -2490 623 2 622 3 3 903 2 902 140 1 c77 0 156 1 175 1
19 0 57 -1 85 -1 l49 -1 688 -905 688 -905 757 0 c416 0 759 3 761 8 2 4 -342
444 -765 977 -423 534 -789 995 -813 1026 l-44 56 79 52 c238 155 486 419 634
676 130 227 195 536 183 874 -11 301 -68 492 -207 689 -147 209 -352 368 -610
473 -141 57 -243 83 -425 109 -247 34 -476 40 -1567 40 l-1058 0 0 -2490z
m2022 1550 c314 -36 490 -176 544 -430 20 -93 14 -315 -11 -404 -55 -198 -211
-355 -420 -422 -89 -29 -118 -31 -602 -38 l-283 -3 0 660 0 660 344 -7 c189
-4 382 -11 428 -16z"/>
</g>
</svg>
